<?xml version="1.0" encoding="utf-8"?>
<!DOCTYPE svg PUBLIC "-//W3C//DTD SVG 1.1//EN" "http://www.w3.org/Graphics/SVG/1.1/DTD/svg11.dtd">
<svg version="1.1" xmlns="http://www.w3.org/2000/svg" xmlns:xlink="http://www.w3.org/1999/xlink" x="0px" y="0px" width="1024px" height="1024px" viewBox="0 0 1024 1024" enable-background="new 0 0 1024 1024" xml:space="preserve">
<g id="base">
	<g>
		<linearGradient id="SVGID_1_" gradientUnits="userSpaceOnUse" x1="512.0005" y1="952" x2="512.0004" y2="72.0005">
			<stop offset="0" style="stop-color:#C9C9C9"/>
			<stop offset="1" style="stop-color:#FFFFFF"/>
		</linearGradient>
		<path fill="url(#SVGID_1_)" d="M512,952c-59.404,0-117.026-11.632-171.265-34.573c-52.394-22.16-99.45-53.888-139.862-94.3s-72.139-87.469-94.3-139.862C83.632,629.025,72,571.404,72,512c0-59.404,11.632-117.026,34.573-171.265c22.161-52.394,53.888-99.45,94.3-139.862s87.468-72.139,139.862-94.3C394.974,83.632,452.596,72,512,72c59.404,0,117.025,11.632,171.265,34.573c52.394,22.161,99.45,53.888,139.862,94.3s72.14,87.468,94.3,139.862C940.368,394.974,952,452.596,952,512c0,59.404-11.632,117.025-34.573,171.265c-22.16,52.394-53.888,99.45-94.3,139.862s-87.469,72.14-139.862,94.3C629.025,940.368,571.404,952,512,952z"/>
		<path fill="#E3E4E5" d="M512,82c58.059,0,114.37,11.366,167.369,33.783c51.202,21.657,97.19,52.664,136.687,92.161c39.497,39.497,70.505,85.485,92.161,136.687C930.634,397.63,942,453.941,942,512s-11.366,114.37-33.783,167.369c-21.656,51.202-52.664,97.19-92.161,136.687c-39.496,39.497-85.484,70.505-136.687,92.161C626.37,930.634,570.059,942,512,942s-114.37-11.366-167.369-33.783c-51.202-21.656-97.19-52.664-136.687-92.161c-39.497-39.496-70.504-85.484-92.161-136.687C93.366,626.37,82,570.059,82,512s11.366-114.37,33.783-167.369c21.657-51.202,52.664-97.19,92.161-136.687c39.497-39.497,85.485-70.504,136.687-92.161C397.63,93.366,453.941,82,512,82 M512,62C263.472,62,62,263.472,62,512s201.472,450,450,450s450-201.472,450-450S760.528,62,512,62L512,62z"/>
	</g>
</g>
<g id="big_heart">
	<g>
		<linearGradient id="SVGID_2_" gradientUnits="userSpaceOnUse" x1="512.0005" y1="887.7383" x2="512.0005" y2="234.8916">
			<stop offset="0" style="stop-color:#D30202"/>
			<stop offset="1" style="stop-color:#FF7373"/>
		</linearGradient>
		<path fill="url(#SVGID_2_)" d="M512.001,887.738L219.78,569.723c-70.382-76.597-70.382-200.788,0-277.385c70.383-76.595,184.499-76.595,254.881,0l37.34,40.637l37.336-40.637c70.389-76.595,184.496-76.595,254.883,0c70.383,76.597,70.383,200.789,0,277.385L512.001,887.738z"/>
	</g>
</g>
<g id="music_note">
	<g>
		<path fill="#3D3D3D" d="M628.259,460.421L449.283,504.71v120.892c-1.815,23.959-5.083,32.31-17.426,43.563c-13.069,11.617-29.406,18.516-44.29,18.516c-13.069,0-23.234-3.631-29.406-10.528c-4.72-5.809-7.986-14.158-7.986-21.782c0-16.337,12.344-31.222,32.31-39.208c7.987-3.268,15.248-4.72,22.146-4.72c11.254,0,21.419,1.815,28.68,5.083V395.801l210.922-51.188V574.05c0,18.151-6.171,32.673-18.151,43.928c-13.068,11.616-29.405,18.515-45.016,18.515c-13.069,0-22.871-3.631-29.043-10.528c-4.72-5.809-7.987-14.158-7.987-21.782c0-14.158,9.44-27.59,25.05-35.939c8.35-4.357,21.419-8.351,28.316-8.351c11.254,0,22.146,1.815,30.858,5.445V460.421z M449.283,435.733v25.776l178.976-44.29v-25.775L449.283,435.733z"/>
	</g>
</g>
</svg>
